HIERARCHY
ROOT Hips
{
 OFFSET 0.000000 0.000000 0.000000
 CHANNELS 6 Xposition Yposition Zposition Yrotation Xrotation Zrotation
 JOINT Chest
 {
  OFFSET 0.000000 10.080317 -0.001081
  CHANNELS 3 Yrotation Xrotation Zrotation
  JOINT Chest2
  {
   OFFSET 0.000000 11.096852 0.001963
   CHANNELS 3 Yrotation Xrotation Zrotation
   JOINT Chest3
   {
    OFFSET 0.000000 10.026525 0.000000
    CHANNELS 3 Yrotation Xrotation Zrotation
    JOINT Chest4
    {
     OFFSET 0.000000 10.026525 0.000000
     CHANNELS 3 Yrotation Xrotation Zrotation
     JOINT Neck
     {
      OFFSET 0.000000 14.108171 0.000000
      CHANNELS 3 Yrotation Xrotation Zrotation
      JOINT Head
      {
       OFFSET 0.000000 9.333493 0.004668
       CHANNELS 3 Yrotation Xrotation Zrotation
       End Site
       {
        OFFSET 0.000000 17.851786 0.002438
       }
      }
     }
     JOINT RightCollar
     {
      OFFSET -3.071622 7.873185 0.000000
      CHANNELS 3 Yrotation Xrotation Zrotation
      JOINT RightShoulder
      {
       OFFSET -14.378659 0.000000 0.000000
       CHANNELS 3 Yrotation Xrotation Zrotation
       JOINT RightElbow
       {
        OFFSET -30.778728 0.000000 0.000000
        CHANNELS 3 Yrotation Xrotation Zrotation
        JOINT RightWrist
        {
         OFFSET -25.164217 0.000000 0.000000
         CHANNELS 3 Yrotation Xrotation Zrotation
         End Site
         {
          OFFSET -18.796788 0.000000 0.000000
         }
        }
       }
      }
     }
     JOINT LeftCollar
     {
      OFFSET 3.071622 7.873185 0.000000
      CHANNELS 3 Yrotation Xrotation Zrotation
      JOINT LeftShoulder
      {
       OFFSET 14.378659 0.000000 0.000000
       CHANNELS 3 Yrotation Xrotation Zrotation
       JOINT LeftElbow
       {
        OFFSET 30.778728 0.000000 0.000000
        CHANNELS 3 Yrotation Xrotation Zrotation
        JOINT LeftWrist
        {
         OFFSET 25.164217 0.000000 0.000000
         CHANNELS 3 Yrotation Xrotation Zrotation
         End Site
         {
          OFFSET 18.796788 0.000000 0.000000
         }
        }
       }
      }
     }
    }
   }
  }
 }
 JOINT RightHip
 {
  OFFSET -8.194923 0.005295 0.000540
  CHANNELS 3 Yrotation Xrotation Zrotation
  JOINT RightKnee
  {
   OFFSET 0.000000 -42.473320 -0.000511
   CHANNELS 3 Yrotation Xrotation Zrotation
   JOINT RightAnkle
   {
    OFFSET 0.000000 -41.474259 -0.000865
    CHANNELS 3 Yrotation Xrotation Zrotation
    JOINT RightToe
    {
     OFFSET 0.000000 -7.354994 16.712725
     CHANNELS 3 Yrotation Xrotation Zrotation
     End Site
     {
      OFFSET 0.000000 -1.553903 6.764158
     }
    }
   }
  }
 }
 JOINT LeftHip
 {
  OFFSET 8.194923 0.005295 0.000540
  CHANNELS 3 Yrotation Xrotation Zrotation
  JOINT LeftKnee
  {
   OFFSET 0.000000 -42.473320 -0.000511
   CHANNELS 3 Yrotation Xrotation Zrotation
   JOINT LeftAnkle
   {
    OFFSET 0.000000 -41.474259 -0.000865
    CHANNELS 3 Yrotation Xrotation Zrotation
    JOINT LeftToe
    {
     OFFSET 0.000000 -7.354994 16.712725
     CHANNELS 3 Yrotation Xrotation Zrotation
     End Site
     {
      OFFSET 0.000000 -1.553903 6.764158
     }
    }
   }
  }
 }
}
MOTION
Frames: 15
Frame Time: 0.016667
-32.899937 91.701032 76.138920 -8.560046 -2.431444 4.925800 2.207032 4.181903 2.366987 1.019077 1.931368 1.095315 1.019077 1.931368 1.095315 0.760776 1.450362 0.818190 1.754711 15.640017 -0.344958 3.401498 -7.110351 -1.291524 7.985897 -11.173389 5.739731 13.959098 -37.107708 38.123372 85.186581 -10.615182 18.717021 -0.087728 3.317861 -13.270704 -6.049951 -8.261214 -7.096396 -7.011994 -33.063930 -58.376104 -95.995585 -25.775724 -54.552599 0.809123 10.215121 10.360152 -17.647187 -9.346652 -3.037263 -9.720011 28.834295 -6.394115 -23.459281 -13.363459 6.589180 -0.147247 -0.015090 -0.194597 3.701170 -5.714694 2.740984 1.746293 41.473635 -11.348445 -6.460388 -17.639258 6.361086 -0.046002 -5.166413 0.506477
-33.059653 91.701477 75.303536 -6.498789 -2.284496 4.831466 1.915159 4.126157 2.386656 0.884019 1.919670 1.126762 0.884019 1.919670 1.126762 0.659414 1.441392 0.842217 1.459741 15.596077 -0.312388 2.840090 -7.200428 -1.123122 8.398969 -11.321444 5.402064 14.223698 -37.308010 37.182903 83.931269 -9.170516 17.665894 -0.120857 3.375792 -13.234693 -6.078785 -8.719307 -7.356323 -8.088223 -33.923844 -57.916696 -96.100898 -26.985900 -54.601595 0.669976 10.109456 10.665706 -18.485943 -9.758962 -2.624504 -10.323905 28.621538 -6.487171 -23.922945 -13.182850 6.339416 -0.100612 0.038560 -0.198566 4.703036 -3.889535 3.143738 2.140613 41.397085 -11.658854 -6.483066 -17.392929 6.504015 -0.107002 -5.507738 0.515307
-33.182800 91.685115 74.440267 -4.386227 -2.166013 4.709430 1.651042 4.099839 2.456307 0.740502 1.911728 1.154366 0.740502 1.911728 1.154366 0.551715 1.435203 0.863379 1.165889 15.550717 -0.283732 2.281880 -7.291632 -0.961969 8.787449 -11.432018 5.017250 14.398733 -37.540124 36.266010 82.630761 -8.034992 16.703422 -0.165974 3.362206 -13.205953 -6.122579 -9.143515 -7.664924 -9.187758 -34.946857 -57.490807 -96.210795 -28.015411 -54.653945 0.596536 10.010082 11.037561 -19.218858 -10.175414 -2.195346 -10.976067 28.418888 -6.661163 -24.490529 -12.976533 6.198989 -0.054743 0.106082 -0.228392 5.427546 -2.050930 3.584579 2.167257 41.028733 -11.910459 -6.260053 -17.166464 6.271271 -0.031251 -5.635587 0.586029
-33.252462 91.655363 73.523735 -2.075663 -1.984383 4.675586 1.270272 3.973332 2.430131 0.585127 1.904321 1.168929 0.585127 1.904321 1.168929 0.435163 1.429367 0.874793 0.874793 15.516174 -0.248588 1.725888 -7.361459 -0.789052 9.120191 -11.501436 4.664147 14.422997 -37.792377 35.264067 81.282515 -7.492262 15.944713 -0.262787 3.312547 -13.202911 -6.139692 -9.568177 -7.984674 -10.319719 -36.051937 -57.134814 -96.322905 -28.898092 -54.637824 0.630977 9.941865 11.311269 -19.942504 -10.727396 -1.860153 -11.658970 28.231421 -6.858435 -25.179935 -12.770411 6.151643 -0.021596 0.199974 -0.282415 6.245398 -0.384844 4.024960 1.844208 40.294282 -12.220163 -6.039206 -16.756151 6.065968 -0.004527 -5.596219 0.606599
-33.289234 91.615002 72.593310 0.276341 -1.908089 4.576770 0.899148 3.925653 2.490152 0.411076 1.896918 1.190537 0.411076 1.896918 1.190537 0.304584 1.423497 0.891546 0.580098 15.521506 -0.215420 1.163225 -7.355842 -0.617652 9.409394 -11.553975 4.338372 14.300527 -37.967666 34.298892 80.152163 -7.180749 15.287285 -0.419149 3.316580 -13.208343 -6.172644 -9.919029 -8.314368 -11.274282 -37.212864 -56.926650 -96.495846 -29.647470 -54.622387 0.783819 9.960431 11.409032 -20.373976 -11.214168 -1.562885 -12.545623 28.103590 -7.115457 -26.048108 -12.519544 6.230033 -0.013960 0.273248 -0.350758 6.991336 1.285834 4.683212 1.470514 39.338736 -12.416079 -5.986186 -16.427052 5.769268 0.117367 -5.331388 0.597946
-33.293500 91.575115 71.626819 2.793801 -1.862808 4.538957 0.448380 3.865285 2.486218 0.222402 1.893094 1.204137 0.222402 1.893094 1.204137 0.163056 1.420266 0.902331 0.286357 15.578071 -0.174448 0.599168 -7.253701 -0.431726 9.661837 -11.624366 3.984671 13.919815 -37.964313 33.463226 79.347271 -6.821442 14.600284 -0.592541 3.376124 -13.137381 -6.230852 -10.248946 -8.614314 -12.123936 -38.304582 -56.863269 -96.717733 -30.302410 -54.523814 0.990658 9.995067 11.418520 -20.728515 -11.727795 -1.415902 -13.445100 27.996940 -7.343126 -26.925906 -12.261319 6.321845 0.000969 0.349174 -0.404355 7.831872 2.927247 5.443391 1.251170 37.932911 -12.422843 -6.115886 -16.050996 5.511245 0.211333 -4.725027 0.477774
-33.244658 91.540740 70.643428 5.341528 -1.865899 4.517651 -0.053368 3.833967 2.468006 0.003669 1.898168 1.238434 0.003669 1.898168 1.238434 -0.001096 1.423640 0.928729 0.007067 15.667530 -0.143054 0.065988 -7.088924 -0.269502 9.941189 -11.666237 3.578612 13.311641 -37.932404 32.757823 78.858774 -6.463688 13.976597 -0.743265 3.432967 -12.982129 -6.286133 -10.509131 -8.914569 -12.868769 -39.377165 -56.891835 -96.880902 -30.951157 -54.412820 1.171820 9.993349 11.440102 -20.823837 -12.255067 -1.361703 -14.387135 27.942546 -7.622319 -27.998946 -11.889454 6.548013 -0.024169 0.369335 -0.483638 8.716018 4.519384 6.198216 1.213240 36.207928 -12.111731 -6.154301 -15.692578 5.250258 0.291507 -3.909210 0.197647
-33.145491 91.505530 69.610586 7.855212 -1.920386 4.489862 -0.564221 3.837416 2.452911 -0.227482 1.909261 1.263164 -0.227482 1.909261 1.263164 -0.174544 1.431483 0.947996 -0.252271 15.804380 -0.095189 -0.435331 -6.834844 -0.084857 10.136757 -11.620273 3.229694 12.566230 -37.992746 32.208050 78.536214 -6.137504 13.430713 -0.798979 3.497693 -12.745552 -6.348429 -10.764400 -9.224750 -13.582123 -40.339605 -56.911473 -96.919427 -31.614127 -54.331752 1.271173 9.935846 11.578404 -20.484230 -12.789877 -1.365270 -15.295305 27.902336 -7.918408 -29.452083 -11.383493 6.797667 0.003474 0.380517 -0.514573 9.833336 6.014632 6.937783 1.470327 34.209777 -11.376368 -6.151224 -15.290286 4.990959 0.301344 -2.959797 -0.219373
-33.012232 91.473963 68.531323 10.178777 -2.031877 4.375606 -1.031634 3.882293 2.498185 -0.473099 1.920002 1.289832 -0.473099 1.920002 1.289832 -0.358846 1.439012 0.968771 -0.453069 15.990130 -0.025211 -0.834459 -6.488847 0.118060 10.304866 -11.530224 2.916579 11.739730 -38.016693 31.958039 78.365081 -5.828407 12.887255 -0.807560 3.526329 -12.528795 -6.361147 -10.960661 -9.482854 -14.246852 -41.193917 -56.927768 -96.992293 -32.190306 -54.145158 1.290914 9.839146 11.765137 -19.663704 -13.238499 -1.291067 -16.096679 27.772868 -8.267576 -31.245410 -10.713919 7.055323 0.067253 0.384969 -0.524969 11.171728 7.453115 7.755318 2.047269 32.046255 -10.329817 -6.119391 -14.820168 4.746719 0.265985 -2.048803 -0.734094
-32.915109 91.410838 67.339128 12.317924 -2.112901 4.171740 -1.475169 3.939654 2.642314 -0.726560 1.922285 1.308311 -0.726560 1.922285 1.308311 -0.548988 1.440169 0.983429 -0.597747 16.210306 0.030010 -1.122416 -6.078541 0.271508 10.475093 -11.448753 2.594423 10.997528 -38.071258 31.854576 78.175769 -5.457480 12.344760 -0.814589 3.515860 -12.348927 -6.298374 -11.207505 -9.707447 -14.799280 -41.931774 -56.984123 -97.156916 -32.673690 -53.875151 1.339430 9.766065 12.003704 -18.624887 -13.681288 -1.120572 -16.657706 27.553291 -8.575911 -32.462784 -10.149467 7.022329 0.233196 0.472385 -0.452748 12.753466 8.732711 8.696442 2.572037 29.714835 -9.298487 -5.909075 -14.146558 4.450934 0.199366 -1.302784 -1.185263
-32.879288 91.319770 66.101627 14.270770 -2.216400 3.890814 -1.978723 4.035181 2.863416 -0.991087 1.925878 1.335993 -0.991087 1.925878 1.335993 -0.747461 1.442255 1.005027 -0.672389 16.485395 0.064034 -1.271228 -5.566674 0.358748 10.710634 -11.332422 2.308820 10.404480 -38.211538 31.801848 77.896420 -5.064342 11.858848 -0.766332 3.506002 -12.233807 -6.189264 -11.495823 -9.890800 -15.146225 -42.529223 -57.081656 -97.486138 -33.087858 -53.506988 1.420223 9.754951 12.210945 -17.575088 -14.062233 -0.859207 -16.975198 27.302139 -8.828995 -33.178865 -9.831438 6.753527 0.389697 0.676583 -0.313071 14.277436 9.937642 9.689449 3.182648 27.330982 -8.274387 -5.478891 -13.016801 3.627008 -0.077218 -1.875983 -2.628118
-32.721288 91.190540 64.815975 15.940489 -2.296294 3.650382 -2.440653 4.041685 2.954267 -1.241499 1.913664 1.369171 -1.241499 1.913664 1.369171 -0.935332 1.432483 1.030677 -0.672812 16.864352 0.090748 -1.278333 -4.862613 0.404353 11.004830 -11.158747 2.082453 10.051471 -38.412919 31.797684 77.438373 -4.596730 11.390202 -0.663082 3.497609 -12.053067 -6.046923 -11.726972 -10.002042 -15.379441 -42.982998 -57.208354 -97.835668 -33.460418 -53.106942 1.592458 9.748436 12.406492 -16.604956 -14.533194 -0.649911 -17.334648 27.192186 -9.062421 -33.161813 -9.546368 6.606022 0.317632 0.700386 -0.398639 16.042291 11.029502 10.518510 3.590644 24.963066 -7.183330 -5.192578 -12.003417 1.778556 -0.127711 -3.175036 -2.919425
-32.922438 91.016730 63.356362 16.855583 -2.340128 2.871306 -2.428858 4.082969 3.553736 -1.455846 1.900783 1.417698 -1.455846 1.900783 1.417698 -1.096202 1.422229 1.067712 -0.605761 17.294869 0.130944 -1.164717 -4.063295 0.450879 11.318122 -11.053305 1.939622 10.013731 -38.598654 31.707187 76.829047 -4.062047 10.895510 -0.458347 3.479449 -11.868773 -5.908181 -11.976387 -10.079832 -15.605867 -43.369559 -57.334094 -98.179309 -33.726750 -52.688677 1.747872 9.716816 12.634278 -15.563605 -14.852783 0.135187 -15.369511 27.528681 -8.461344 -34.812315 -9.148927 6.493477 1.151293 0.593406 -0.276851 17.971310 11.901948 11.642690 3.549819 22.592103 -6.421395 -4.869774 -12.409992 -0.289015 -0.418842 -3.305604 -2.471498
-34.047063 90.809868 61.732091 17.729661 -2.666598 1.443721 -2.618558 4.455579 4.760714 -1.614221 1.877858 1.452273 -1.614221 1.877858 1.452273 -1.215029 1.404579 1.094078 -0.491899 17.755331 0.177379 -0.966850 -3.208725 0.493350 11.645853 -10.993440 1.835212 10.118636 -38.885495 31.592491 76.050762 -3.488791 10.549737 -0.181761 3.426323 -11.731821 -5.808298 -12.272952 -10.160807 -15.786788 -43.701040 -57.450129 -98.447576 -33.933637 -52.344245 1.822742 9.697194 12.854818 -14.523937 -14.960584 1.493141 -10.854407 28.378518 -7.134588 -37.558684 -8.224223 6.425045 2.960554 0.188309 0.095260 18.904254 12.920243 13.091775 1.830526 19.561650 -6.302947 -3.053059 -13.888397 -1.907283 -1.111244 -1.671996 -2.027240
-35.629777 90.577867 59.547911 18.109206 -2.016738 1.261488 -2.631359 3.822748 4.741443 -1.733646 1.885599 1.479348 -1.733646 1.885599 1.479348 -1.304692 1.410027 1.114772 -0.314341 18.194784 0.271480 -0.668285 -2.393251 0.603670 11.963813 -10.961382 1.773747 10.263956 -39.260072 31.548521 75.182553 -2.937581 10.273347 0.121470 3.357584 -11.619752 -5.662330 -12.645727 -10.268673 -16.078053 -43.971912 -57.486690 -98.631503 -34.133792 -52.083668 1.784855 9.683788 13.005075 -12.010408 -16.629574 1.940756 -7.609819 29.426899 -6.334228 -38.336164 -7.635019 6.707407 3.736215 0.030899 0.103774 18.634148 13.478876 12.546735 1.102304 16.681917 -5.604954 -2.724128 -15.855964 -3.528312 -0.808060 1.482853 -0.647669
